<mxfile host="Electron" agent="Mozilla/5.0 (Windows NT 10.0; Win64; x64) AppleWebKit/537.36 (KHTML, like Gecko) draw.io/27.0.5 Chrome/134.0.6998.205 Electron/35.3.0 Safari/537.36" version="27.0.5">
  <diagram name="Página-1" id="WDpSNwOnat_zKMU1a3LD">
    <mxGraphModel dx="817" dy="833" grid="1" gridSize="10" guides="1" tooltips="1" connect="1" arrows="1" fold="1" page="1" pageScale="1" pageWidth="827" pageHeight="1169" math="0" shadow="0">
      <root>
        <mxCell id="0" />
        <mxCell id="1" parent="0" />
        <mxCell id="v1noT2QlWRYgjeT7zZOO-1" value="Users" style="swimlane;fontStyle=0;childLayout=stackLayout;horizontal=1;startSize=26;fillColor=none;horizontalStack=0;resizeParent=1;resizeParentMax=0;resizeLast=0;collapsible=1;marginBottom=0;whiteSpace=wrap;html=1;" parent="1" vertex="1">
          <mxGeometry x="330" y="190" width="140" height="290" as="geometry" />
        </mxCell>
        <mxCell id="v1noT2QlWRYgjeT7zZOO-2" value="+ DNI: int" style="text;strokeColor=none;fillColor=none;align=left;verticalAlign=top;spacingLeft=4;spacingRight=4;overflow=hidden;rotatable=0;points=[[0,0.5],[1,0.5]];portConstraint=eastwest;whiteSpace=wrap;html=1;" parent="v1noT2QlWRYgjeT7zZOO-1" vertex="1">
          <mxGeometry y="26" width="140" height="26" as="geometry" />
        </mxCell>
        <mxCell id="v1noT2QlWRYgjeT7zZOO-3" value="+ nombre: string" style="text;strokeColor=none;fillColor=none;align=left;verticalAlign=top;spacingLeft=4;spacingRight=4;overflow=hidden;rotatable=0;points=[[0,0.5],[1,0.5]];portConstraint=eastwest;whiteSpace=wrap;html=1;" parent="v1noT2QlWRYgjeT7zZOO-1" vertex="1">
          <mxGeometry y="52" width="140" height="26" as="geometry" />
        </mxCell>
        <mxCell id="v1noT2QlWRYgjeT7zZOO-7" value="+ apellidos: string" style="text;strokeColor=none;fillColor=none;align=left;verticalAlign=top;spacingLeft=4;spacingRight=4;overflow=hidden;rotatable=0;points=[[0,0.5],[1,0.5]];portConstraint=eastwest;whiteSpace=wrap;html=1;" parent="v1noT2QlWRYgjeT7zZOO-1" vertex="1">
          <mxGeometry y="78" width="140" height="26" as="geometry" />
        </mxCell>
        <mxCell id="v1noT2QlWRYgjeT7zZOO-5" value="+ foto: image" style="text;strokeColor=none;fillColor=none;align=left;verticalAlign=top;spacingLeft=4;spacingRight=4;overflow=hidden;rotatable=0;points=[[0,0.5],[1,0.5]];portConstraint=eastwest;whiteSpace=wrap;html=1;" parent="v1noT2QlWRYgjeT7zZOO-1" vertex="1">
          <mxGeometry y="104" width="140" height="26" as="geometry" />
        </mxCell>
        <mxCell id="v1noT2QlWRYgjeT7zZOO-8" value="+ telefono: int" style="text;strokeColor=none;fillColor=none;align=left;verticalAlign=top;spacingLeft=4;spacingRight=4;overflow=hidden;rotatable=0;points=[[0,0.5],[1,0.5]];portConstraint=eastwest;whiteSpace=wrap;html=1;" parent="v1noT2QlWRYgjeT7zZOO-1" vertex="1">
          <mxGeometry y="130" width="140" height="26" as="geometry" />
        </mxCell>
        <mxCell id="v1noT2QlWRYgjeT7zZOO-9" value="+ mail: string" style="text;strokeColor=none;fillColor=none;align=left;verticalAlign=top;spacingLeft=4;spacingRight=4;overflow=hidden;rotatable=0;points=[[0,0.5],[1,0.5]];portConstraint=eastwest;whiteSpace=wrap;html=1;" parent="v1noT2QlWRYgjeT7zZOO-1" vertex="1">
          <mxGeometry y="156" width="140" height="26" as="geometry" />
        </mxCell>
        <mxCell id="v1noT2QlWRYgjeT7zZOO-10" value="+ estado: string" style="text;strokeColor=none;fillColor=none;align=left;verticalAlign=top;spacingLeft=4;spacingRight=4;overflow=hidden;rotatable=0;points=[[0,0.5],[1,0.5]];portConstraint=eastwest;whiteSpace=wrap;html=1;" parent="v1noT2QlWRYgjeT7zZOO-1" vertex="1">
          <mxGeometry y="182" width="140" height="28" as="geometry" />
        </mxCell>
        <mxCell id="v1noT2QlWRYgjeT7zZOO-11" value="+ contraseña: string" style="text;strokeColor=none;fillColor=none;align=left;verticalAlign=top;spacingLeft=4;spacingRight=4;overflow=hidden;rotatable=0;points=[[0,0.5],[1,0.5]];portConstraint=eastwest;whiteSpace=wrap;html=1;" parent="v1noT2QlWRYgjeT7zZOO-1" vertex="1">
          <mxGeometry y="210" width="140" height="26" as="geometry" />
        </mxCell>
        <mxCell id="v1noT2QlWRYgjeT7zZOO-12" value="+ puesto: string" style="text;strokeColor=none;fillColor=none;align=left;verticalAlign=top;spacingLeft=4;spacingRight=4;overflow=hidden;rotatable=0;points=[[0,0.5],[1,0.5]];portConstraint=eastwest;whiteSpace=wrap;html=1;" parent="v1noT2QlWRYgjeT7zZOO-1" vertex="1">
          <mxGeometry y="236" width="140" height="26" as="geometry" />
        </mxCell>
        <mxCell id="v1noT2QlWRYgjeT7zZOO-4" value="+ departamento: string&amp;nbsp;" style="text;strokeColor=none;fillColor=none;align=left;verticalAlign=top;spacingLeft=4;spacingRight=4;overflow=hidden;rotatable=0;points=[[0,0.5],[1,0.5]];portConstraint=eastwest;whiteSpace=wrap;html=1;" parent="v1noT2QlWRYgjeT7zZOO-1" vertex="1">
          <mxGeometry y="262" width="140" height="28" as="geometry" />
        </mxCell>
        <mxCell id="v1noT2QlWRYgjeT7zZOO-22" value="admiPrincipal" style="swimlane;fontStyle=1;align=center;verticalAlign=top;childLayout=stackLayout;horizontal=1;startSize=20;horizontalStack=0;resizeParent=1;resizeParentMax=0;resizeLast=0;collapsible=1;marginBottom=0;whiteSpace=wrap;html=1;" parent="1" vertex="1">
          <mxGeometry x="60" y="520" width="190" height="136" as="geometry" />
        </mxCell>
        <mxCell id="v1noT2QlWRYgjeT7zZOO-23" value="+ nombre: string" style="text;strokeColor=none;fillColor=none;align=left;verticalAlign=top;spacingLeft=4;spacingRight=4;overflow=hidden;rotatable=0;points=[[0,0.5],[1,0.5]];portConstraint=eastwest;whiteSpace=wrap;html=1;" parent="v1noT2QlWRYgjeT7zZOO-22" vertex="1">
          <mxGeometry y="20" width="190" height="26" as="geometry" />
        </mxCell>
        <mxCell id="v1noT2QlWRYgjeT7zZOO-24" value="" style="line;strokeWidth=1;fillColor=none;align=left;verticalAlign=middle;spacingTop=-1;spacingLeft=3;spacingRight=3;rotatable=0;labelPosition=right;points=[];portConstraint=eastwest;strokeColor=inherit;" parent="v1noT2QlWRYgjeT7zZOO-22" vertex="1">
          <mxGeometry y="46" width="190" height="8" as="geometry" />
        </mxCell>
        <mxCell id="v1noT2QlWRYgjeT7zZOO-28" value="+&amp;nbsp;on_btnEmpresas_clicked()" style="text;strokeColor=none;fillColor=none;align=left;verticalAlign=top;spacingLeft=4;spacingRight=4;overflow=hidden;rotatable=0;points=[[0,0.5],[1,0.5]];portConstraint=eastwest;whiteSpace=wrap;html=1;" parent="v1noT2QlWRYgjeT7zZOO-22" vertex="1">
          <mxGeometry y="54" width="190" height="26" as="geometry" />
        </mxCell>
        <mxCell id="v1noT2QlWRYgjeT7zZOO-25" value="+on_btnDepartamentos_clicked()" style="text;strokeColor=none;fillColor=none;align=left;verticalAlign=top;spacingLeft=4;spacingRight=4;overflow=hidden;rotatable=0;points=[[0,0.5],[1,0.5]];portConstraint=eastwest;whiteSpace=wrap;html=1;" parent="v1noT2QlWRYgjeT7zZOO-22" vertex="1">
          <mxGeometry y="80" width="190" height="30" as="geometry" />
        </mxCell>
        <mxCell id="v1noT2QlWRYgjeT7zZOO-27" value="+on_btnUsuarios_clicked()" style="text;strokeColor=none;fillColor=none;align=left;verticalAlign=top;spacingLeft=4;spacingRight=4;overflow=hidden;rotatable=0;points=[[0,0.5],[1,0.5]];portConstraint=eastwest;whiteSpace=wrap;html=1;" parent="v1noT2QlWRYgjeT7zZOO-22" vertex="1">
          <mxGeometry y="110" width="190" height="26" as="geometry" />
        </mxCell>
        <mxCell id="v1noT2QlWRYgjeT7zZOO-35" value="AdmiJefe" style="swimlane;fontStyle=0;childLayout=stackLayout;horizontal=1;startSize=26;fillColor=none;horizontalStack=0;resizeParent=1;resizeParentMax=0;resizeLast=0;collapsible=1;marginBottom=0;whiteSpace=wrap;html=1;" parent="1" vertex="1">
          <mxGeometry x="590" y="520" width="140" height="130" as="geometry" />
        </mxCell>
        <mxCell id="v1noT2QlWRYgjeT7zZOO-36" value="&amp;nbsp;+loadUsers()&amp;nbsp;&amp;nbsp;" style="text;strokeColor=none;fillColor=none;align=left;verticalAlign=top;spacingLeft=4;spacingRight=4;overflow=hidden;rotatable=0;points=[[0,0.5],[1,0.5]];portConstraint=eastwest;whiteSpace=wrap;html=1;" parent="v1noT2QlWRYgjeT7zZOO-35" vertex="1">
          <mxGeometry y="26" width="140" height="24" as="geometry" />
        </mxCell>
        <mxCell id="v1noT2QlWRYgjeT7zZOO-37" value="+on_btnCrear()" style="text;strokeColor=none;fillColor=none;align=left;verticalAlign=top;spacingLeft=4;spacingRight=4;overflow=hidden;rotatable=0;points=[[0,0.5],[1,0.5]];portConstraint=eastwest;whiteSpace=wrap;html=1;" parent="v1noT2QlWRYgjeT7zZOO-35" vertex="1">
          <mxGeometry y="50" width="140" height="26" as="geometry" />
        </mxCell>
        <mxCell id="v1noT2QlWRYgjeT7zZOO-38" value="&amp;nbsp;+on_btnEditar()&amp;nbsp;" style="text;strokeColor=none;fillColor=none;align=left;verticalAlign=top;spacingLeft=4;spacingRight=4;overflow=hidden;rotatable=0;points=[[0,0.5],[1,0.5]];portConstraint=eastwest;whiteSpace=wrap;html=1;" parent="v1noT2QlWRYgjeT7zZOO-35" vertex="1">
          <mxGeometry y="76" width="140" height="26" as="geometry" />
        </mxCell>
        <mxCell id="v1noT2QlWRYgjeT7zZOO-39" value="+on_btnBorrar()&amp;nbsp;" style="text;strokeColor=none;fillColor=none;align=left;verticalAlign=top;spacingLeft=4;spacingRight=4;overflow=hidden;rotatable=0;points=[[0,0.5],[1,0.5]];portConstraint=eastwest;whiteSpace=wrap;html=1;" parent="v1noT2QlWRYgjeT7zZOO-35" vertex="1">
          <mxGeometry y="102" width="140" height="28" as="geometry" />
        </mxCell>
        <mxCell id="v1noT2QlWRYgjeT7zZOO-41" value="trabajador" style="swimlane;fontStyle=0;childLayout=stackLayout;horizontal=1;startSize=26;fillColor=none;horizontalStack=0;resizeParent=1;resizeParentMax=0;resizeLast=0;collapsible=1;marginBottom=0;whiteSpace=wrap;html=1;" parent="1" vertex="1">
          <mxGeometry x="330" y="520" width="190" height="230" as="geometry" />
        </mxCell>
        <mxCell id="v1noT2QlWRYgjeT7zZOO-42" value="+setUsuarioActual()&amp;nbsp;&amp;nbsp;" style="text;strokeColor=none;fillColor=none;align=left;verticalAlign=top;spacingLeft=4;spacingRight=4;overflow=hidden;rotatable=0;points=[[0,0.5],[1,0.5]];portConstraint=eastwest;whiteSpace=wrap;html=1;" parent="v1noT2QlWRYgjeT7zZOO-41" vertex="1">
          <mxGeometry y="26" width="190" height="34" as="geometry" />
        </mxCell>
        <mxCell id="2cphMAbJBiOEFDwJOkQA-2" value="+ loadUsers()" style="text;strokeColor=none;fillColor=none;align=left;verticalAlign=top;spacingLeft=4;spacingRight=4;overflow=hidden;rotatable=0;points=[[0,0.5],[1,0.5]];portConstraint=eastwest;whiteSpace=wrap;html=1;" vertex="1" parent="v1noT2QlWRYgjeT7zZOO-41">
          <mxGeometry y="60" width="190" height="30" as="geometry" />
        </mxCell>
        <mxCell id="2cphMAbJBiOEFDwJOkQA-3" value="+on_btnNuevoUsuario_clicked()" style="text;strokeColor=none;fillColor=none;align=left;verticalAlign=top;spacingLeft=4;spacingRight=4;overflow=hidden;rotatable=0;points=[[0,0.5],[1,0.5]];portConstraint=eastwest;whiteSpace=wrap;html=1;" vertex="1" parent="v1noT2QlWRYgjeT7zZOO-41">
          <mxGeometry y="90" width="190" height="26" as="geometry" />
        </mxCell>
        <mxCell id="2cphMAbJBiOEFDwJOkQA-4" value="+on_btnEditUser_clicked()&amp;nbsp;" style="text;whiteSpace=wrap;html=1;" vertex="1" parent="v1noT2QlWRYgjeT7zZOO-41">
          <mxGeometry y="116" width="190" height="24" as="geometry" />
        </mxCell>
        <mxCell id="2cphMAbJBiOEFDwJOkQA-5" value="&amp;nbsp;+on_btnDeleteUser_clicked()" style="text;whiteSpace=wrap;html=1;" vertex="1" parent="v1noT2QlWRYgjeT7zZOO-41">
          <mxGeometry y="140" width="190" height="30" as="geometry" />
        </mxCell>
        <mxCell id="2cphMAbJBiOEFDwJOkQA-6" value="+mostrarFotoUsuario()&amp;nbsp;" style="text;whiteSpace=wrap;html=1;" vertex="1" parent="v1noT2QlWRYgjeT7zZOO-41">
          <mxGeometry y="170" width="190" height="30" as="geometry" />
        </mxCell>
        <mxCell id="2cphMAbJBiOEFDwJOkQA-8" value="+setEmpresaFiltro()&amp;nbsp;&amp;nbsp;" style="text;whiteSpace=wrap;html=1;" vertex="1" parent="v1noT2QlWRYgjeT7zZOO-41">
          <mxGeometry y="200" width="190" height="30" as="geometry" />
        </mxCell>
        <mxCell id="v1noT2QlWRYgjeT7zZOO-45" value="Dpto" style="swimlane;fontStyle=0;childLayout=stackLayout;horizontal=1;startSize=26;fillColor=none;horizontalStack=0;resizeParent=1;resizeParentMax=0;resizeLast=0;collapsible=1;marginBottom=0;whiteSpace=wrap;html=1;" parent="1" vertex="1">
          <mxGeometry x="50" y="100" width="160" height="84" as="geometry" />
        </mxCell>
        <mxCell id="v1noT2QlWRYgjeT7zZOO-46" value="+ nombre: String" style="text;strokeColor=none;fillColor=none;align=left;verticalAlign=top;spacingLeft=4;spacingRight=4;overflow=hidden;rotatable=0;points=[[0,0.5],[1,0.5]];portConstraint=eastwest;whiteSpace=wrap;html=1;" parent="v1noT2QlWRYgjeT7zZOO-45" vertex="1">
          <mxGeometry y="26" width="160" height="26" as="geometry" />
        </mxCell>
        <mxCell id="v1noT2QlWRYgjeT7zZOO-47" value="+ empleados: List&amp;lt;Usuario&amp;gt;" style="text;strokeColor=none;fillColor=none;align=left;verticalAlign=top;spacingLeft=4;spacingRight=4;overflow=hidden;rotatable=0;points=[[0,0.5],[1,0.5]];portConstraint=eastwest;whiteSpace=wrap;html=1;" parent="v1noT2QlWRYgjeT7zZOO-45" vertex="1">
          <mxGeometry y="52" width="160" height="32" as="geometry" />
        </mxCell>
        <mxCell id="v1noT2QlWRYgjeT7zZOO-48" value="FormualrioUsuario" style="swimlane;fontStyle=0;childLayout=stackLayout;horizontal=1;startSize=26;fillColor=none;horizontalStack=0;resizeParent=1;resizeParentMax=0;resizeLast=0;collapsible=1;marginBottom=0;whiteSpace=wrap;html=1;" parent="1" vertex="1">
          <mxGeometry x="600" y="170" width="140" height="260" as="geometry" />
        </mxCell>
        <mxCell id="v1noT2QlWRYgjeT7zZOO-49" value="+ nombre" style="text;strokeColor=none;fillColor=none;align=left;verticalAlign=top;spacingLeft=4;spacingRight=4;overflow=hidden;rotatable=0;points=[[0,0.5],[1,0.5]];portConstraint=eastwest;whiteSpace=wrap;html=1;" parent="v1noT2QlWRYgjeT7zZOO-48" vertex="1">
          <mxGeometry y="26" width="140" height="26" as="geometry" />
        </mxCell>
        <mxCell id="v1noT2QlWRYgjeT7zZOO-50" value="+ apellidos" style="text;strokeColor=none;fillColor=none;align=left;verticalAlign=top;spacingLeft=4;spacingRight=4;overflow=hidden;rotatable=0;points=[[0,0.5],[1,0.5]];portConstraint=eastwest;whiteSpace=wrap;html=1;" parent="v1noT2QlWRYgjeT7zZOO-48" vertex="1">
          <mxGeometry y="52" width="140" height="26" as="geometry" />
        </mxCell>
        <mxCell id="v1noT2QlWRYgjeT7zZOO-51" value="+ foto" style="text;strokeColor=none;fillColor=none;align=left;verticalAlign=top;spacingLeft=4;spacingRight=4;overflow=hidden;rotatable=0;points=[[0,0.5],[1,0.5]];portConstraint=eastwest;whiteSpace=wrap;html=1;" parent="v1noT2QlWRYgjeT7zZOO-48" vertex="1">
          <mxGeometry y="78" width="140" height="26" as="geometry" />
        </mxCell>
        <mxCell id="v1noT2QlWRYgjeT7zZOO-52" value="+ telefono" style="text;strokeColor=none;fillColor=none;align=left;verticalAlign=top;spacingLeft=4;spacingRight=4;overflow=hidden;rotatable=0;points=[[0,0.5],[1,0.5]];portConstraint=eastwest;whiteSpace=wrap;html=1;" parent="v1noT2QlWRYgjeT7zZOO-48" vertex="1">
          <mxGeometry y="104" width="140" height="26" as="geometry" />
        </mxCell>
        <mxCell id="v1noT2QlWRYgjeT7zZOO-53" value="+ mail" style="text;strokeColor=none;fillColor=none;align=left;verticalAlign=top;spacingLeft=4;spacingRight=4;overflow=hidden;rotatable=0;points=[[0,0.5],[1,0.5]];portConstraint=eastwest;whiteSpace=wrap;html=1;" parent="v1noT2QlWRYgjeT7zZOO-48" vertex="1">
          <mxGeometry y="130" width="140" height="26" as="geometry" />
        </mxCell>
        <mxCell id="v1noT2QlWRYgjeT7zZOO-54" value="+ estado" style="text;strokeColor=none;fillColor=none;align=left;verticalAlign=top;spacingLeft=4;spacingRight=4;overflow=hidden;rotatable=0;points=[[0,0.5],[1,0.5]];portConstraint=eastwest;whiteSpace=wrap;html=1;" parent="v1noT2QlWRYgjeT7zZOO-48" vertex="1">
          <mxGeometry y="156" width="140" height="26" as="geometry" />
        </mxCell>
        <mxCell id="v1noT2QlWRYgjeT7zZOO-55" value="+ contraseña" style="text;strokeColor=none;fillColor=none;align=left;verticalAlign=top;spacingLeft=4;spacingRight=4;overflow=hidden;rotatable=0;points=[[0,0.5],[1,0.5]];portConstraint=eastwest;whiteSpace=wrap;html=1;" parent="v1noT2QlWRYgjeT7zZOO-48" vertex="1">
          <mxGeometry y="182" width="140" height="26" as="geometry" />
        </mxCell>
        <mxCell id="v1noT2QlWRYgjeT7zZOO-56" value="+ puesto" style="text;strokeColor=none;fillColor=none;align=left;verticalAlign=top;spacingLeft=4;spacingRight=4;overflow=hidden;rotatable=0;points=[[0,0.5],[1,0.5]];portConstraint=eastwest;whiteSpace=wrap;html=1;" parent="v1noT2QlWRYgjeT7zZOO-48" vertex="1">
          <mxGeometry y="208" width="140" height="26" as="geometry" />
        </mxCell>
        <mxCell id="v1noT2QlWRYgjeT7zZOO-57" value="+ dpt" style="text;strokeColor=none;fillColor=none;align=left;verticalAlign=top;spacingLeft=4;spacingRight=4;overflow=hidden;rotatable=0;points=[[0,0.5],[1,0.5]];portConstraint=eastwest;whiteSpace=wrap;html=1;" parent="v1noT2QlWRYgjeT7zZOO-48" vertex="1">
          <mxGeometry y="234" width="140" height="26" as="geometry" />
        </mxCell>
        <mxCell id="v1noT2QlWRYgjeT7zZOO-58" value="Empresa" style="swimlane;fontStyle=0;childLayout=stackLayout;horizontal=1;startSize=26;fillColor=none;horizontalStack=0;resizeParent=1;resizeParentMax=0;resizeLast=0;collapsible=1;marginBottom=0;whiteSpace=wrap;html=1;" parent="1" vertex="1">
          <mxGeometry x="320" y="40" width="170" height="110" as="geometry" />
        </mxCell>
        <mxCell id="v1noT2QlWRYgjeT7zZOO-59" value="+ nombre: String&lt;div&gt;&lt;br&gt;&lt;/div&gt;" style="text;strokeColor=none;fillColor=none;align=left;verticalAlign=top;spacingLeft=4;spacingRight=4;overflow=hidden;rotatable=0;points=[[0,0.5],[1,0.5]];portConstraint=eastwest;whiteSpace=wrap;html=1;" parent="v1noT2QlWRYgjeT7zZOO-58" vertex="1">
          <mxGeometry y="26" width="170" height="26" as="geometry" />
        </mxCell>
        <mxCell id="v1noT2QlWRYgjeT7zZOO-60" value="+ departamentos: List &amp;lt;Dpto&amp;gt;" style="text;strokeColor=none;fillColor=none;align=left;verticalAlign=top;spacingLeft=4;spacingRight=4;overflow=hidden;rotatable=0;points=[[0,0.5],[1,0.5]];portConstraint=eastwest;whiteSpace=wrap;html=1;" parent="v1noT2QlWRYgjeT7zZOO-58" vertex="1">
          <mxGeometry y="52" width="170" height="26" as="geometry" />
        </mxCell>
        <mxCell id="v1noT2QlWRYgjeT7zZOO-74" value="+ empleados: list&amp;lt;empleados&amp;gt;" style="text;strokeColor=none;fillColor=none;align=left;verticalAlign=top;spacingLeft=4;spacingRight=4;overflow=hidden;rotatable=0;points=[[0,0.5],[1,0.5]];portConstraint=eastwest;whiteSpace=wrap;html=1;" parent="v1noT2QlWRYgjeT7zZOO-58" vertex="1">
          <mxGeometry y="78" width="170" height="32" as="geometry" />
        </mxCell>
        <mxCell id="v1noT2QlWRYgjeT7zZOO-67" value="" style="endArrow=diamondThin;endFill=1;endSize=24;html=1;rounded=0;exitX=0.5;exitY=0;exitDx=0;exitDy=0;" parent="1" source="v1noT2QlWRYgjeT7zZOO-1" edge="1">
          <mxGeometry width="160" relative="1" as="geometry">
            <mxPoint x="270" y="141.41000000000003" as="sourcePoint" />
            <mxPoint x="400" y="150" as="targetPoint" />
          </mxGeometry>
        </mxCell>
        <mxCell id="v1noT2QlWRYgjeT7zZOO-68" value="" style="endArrow=diamondThin;endFill=1;endSize=24;html=1;rounded=0;entryX=0.5;entryY=1.187;entryDx=0;entryDy=0;entryPerimeter=0;exitX=-0.015;exitY=0.056;exitDx=0;exitDy=0;exitPerimeter=0;" parent="1" source="v1noT2QlWRYgjeT7zZOO-1" target="v1noT2QlWRYgjeT7zZOO-47" edge="1">
          <mxGeometry width="160" relative="1" as="geometry">
            <mxPoint x="100" y="310" as="sourcePoint" />
            <mxPoint x="260" y="310" as="targetPoint" />
          </mxGeometry>
        </mxCell>
        <mxCell id="v1noT2QlWRYgjeT7zZOO-69" value="" style="endArrow=diamondThin;endFill=1;endSize=24;html=1;rounded=0;entryX=-0.016;entryY=0.164;entryDx=0;entryDy=0;entryPerimeter=0;exitX=0.5;exitY=0;exitDx=0;exitDy=0;" parent="1" source="v1noT2QlWRYgjeT7zZOO-45" target="v1noT2QlWRYgjeT7zZOO-58" edge="1">
          <mxGeometry width="160" relative="1" as="geometry">
            <mxPoint x="110" y="60" as="sourcePoint" />
            <mxPoint x="270" y="60" as="targetPoint" />
          </mxGeometry>
        </mxCell>
        <mxCell id="v1noT2QlWRYgjeT7zZOO-70" value="" style="endArrow=diamondThin;endFill=1;endSize=24;html=1;rounded=0;" parent="1" edge="1">
          <mxGeometry width="160" relative="1" as="geometry">
            <mxPoint x="470" y="310" as="sourcePoint" />
            <mxPoint x="600" y="310" as="targetPoint" />
          </mxGeometry>
        </mxCell>
        <mxCell id="v1noT2QlWRYgjeT7zZOO-71" value="" style="endArrow=diamondThin;endFill=1;endSize=24;html=1;rounded=0;exitX=0.5;exitY=0;exitDx=0;exitDy=0;" parent="1" source="v1noT2QlWRYgjeT7zZOO-22" target="v1noT2QlWRYgjeT7zZOO-4" edge="1">
          <mxGeometry width="160" relative="1" as="geometry">
            <mxPoint x="130" y="470" as="sourcePoint" />
            <mxPoint x="290" y="470" as="targetPoint" />
          </mxGeometry>
        </mxCell>
        <mxCell id="v1noT2QlWRYgjeT7zZOO-72" value="" style="endArrow=diamondThin;endFill=1;endSize=24;html=1;rounded=0;exitX=0.5;exitY=0;exitDx=0;exitDy=0;" parent="1" source="v1noT2QlWRYgjeT7zZOO-41" target="v1noT2QlWRYgjeT7zZOO-4" edge="1">
          <mxGeometry width="160" relative="1" as="geometry">
            <mxPoint x="360" y="450" as="sourcePoint" />
            <mxPoint x="520" y="450" as="targetPoint" />
          </mxGeometry>
        </mxCell>
        <mxCell id="v1noT2QlWRYgjeT7zZOO-73" value="" style="endArrow=diamondThin;endFill=1;endSize=24;html=1;rounded=0;exitX=0.5;exitY=0;exitDx=0;exitDy=0;entryX=0.985;entryY=1.057;entryDx=0;entryDy=0;entryPerimeter=0;" parent="1" source="v1noT2QlWRYgjeT7zZOO-35" target="v1noT2QlWRYgjeT7zZOO-4" edge="1">
          <mxGeometry width="160" relative="1" as="geometry">
            <mxPoint x="450" y="490" as="sourcePoint" />
            <mxPoint x="610" y="490" as="targetPoint" />
          </mxGeometry>
        </mxCell>
      </root>
    </mxGraphModel>
  </diagram>
</mxfile>
